HIERARCHY
ROOT Pelvis
{
	OFFSET 0.000000 0.000000 0.000000
	CHANNELS 6 Xposition Yposition Zposition Xrotation Yrotation Zrotation
	JOINT LeftUpLeg_virtual
	{
		OFFSET 0.000000 0.000000 0.000000
		CHANNELS 3 Xrotation Yrotation Zrotation
		JOINT LeftUpLeg
		{
			OFFSET 8.479700 -4.795502 -0.379100
			CHANNELS 3 Xrotation Yrotation Zrotation
			JOINT LeftLeg
			{
				OFFSET 0.024144 -32.555107 0.112900
				CHANNELS 3 Xrotation Yrotation Zrotation
				JOINT LeftFoot
				{
					OFFSET -0.024144 -32.638630 -3.012600
					CHANNELS 3 Xrotation Yrotation Zrotation
					JOINT LeftToeBase
					{
						OFFSET 0.970200 -13.225400 11.864200
						CHANNELS 3 Xrotation Yrotation Zrotation
						End Site
						{
							OFFSET 0 0 0
						}
					}
				}
			}
		}
	}
	JOINT RightUpLeg_virtual
	{
		OFFSET 0.000000 0.000000 0.000000
		CHANNELS 3 Xrotation Yrotation Zrotation
		JOINT RightUpLeg
		{
			OFFSET -8.479700 -4.795502 -0.379100
			CHANNELS 3 Xrotation Yrotation Zrotation
			JOINT RightLeg
			{
				OFFSET -0.023144 -32.555092 0.112900
				CHANNELS 3 Xrotation Yrotation Zrotation
				JOINT RightFoot
				{
					OFFSET 0.023144 -32.638641 -3.012700
					CHANNELS 3 Xrotation Yrotation Zrotation
					JOINT RightToeBase
					{
						OFFSET -0.970200 -13.225400 11.864200
						CHANNELS 3 Xrotation Yrotation Zrotation
						End Site
						{
							OFFSET 0 0 0
						}
					}
				}
			}
		}
	}
	JOINT Hips_virtual
	{
		OFFSET 0.000000 0.000000 0.000000
		CHANNELS 3 Xrotation Yrotation Zrotation
		JOINT Hips
		{
			OFFSET -0.000000 -0.000000 -0.000000
			CHANNELS 3 Xrotation Yrotation Zrotation
			JOINT Spine
			{
				OFFSET 0.000000 7.722000 1.166200
				CHANNELS 3 Xrotation Yrotation Zrotation
				JOINT Spine1
				{
					OFFSET 0.000000 12.024101 0.248800
					CHANNELS 3 Xrotation Yrotation Zrotation
					JOINT Spine2
					{
						OFFSET 0.000000 11.502998 -0.491200
						CHANNELS 3 Xrotation Yrotation Zrotation
						JOINT Neck_virtual
						{
							OFFSET 0.000000 0.000000 0.000000
							CHANNELS 3 Xrotation Yrotation Zrotation
							JOINT Neck
							{
								OFFSET 0.000000 18.430702 -3.123100
								CHANNELS 3 Xrotation Yrotation Zrotation
								JOINT Head
								{
									OFFSET 0.000000 9.051102 1.034000
									CHANNELS 3 Xrotation Yrotation Zrotation
									End Site
									{
										OFFSET 0 0 0
									}
								}
							}
						}
						JOINT LeftShoulder_virtual
						{
							OFFSET 0.000000 0.000000 0.000000
							CHANNELS 3 Xrotation Yrotation Zrotation
							JOINT LeftShoulder
							{
								OFFSET 6.197800 13.665199 -4.064700
								CHANNELS 3 Xrotation Yrotation Zrotation
								JOINT LeftArm
								{
									OFFSET 7.778100 -0.187103 -1.709300
									CHANNELS 3 Xrotation Yrotation Zrotation
									JOINT LeftForeArm
									{
										OFFSET 22.049376 0.000000 0.000000
										CHANNELS 3 Xrotation Yrotation Zrotation
										JOINT LeftHand
										{
											OFFSET 23.009392 0.000000 0.000000
											CHANNELS 3 Xrotation Yrotation Zrotation
											End Site
											{
												OFFSET 0 0 0
											}
										}
									}
								}
							}
						}
						JOINT RightShoulder_virtual
						{
							OFFSET 0.000000 0.000000 0.000000
							CHANNELS 3 Xrotation Yrotation Zrotation
							JOINT RightShoulder
							{
								OFFSET -6.197800 13.665199 -4.064700
								CHANNELS 3 Xrotation Yrotation Zrotation
								JOINT RightArm
								{
									OFFSET -7.778100 -0.187103 -1.709300
									CHANNELS 3 Xrotation Yrotation Zrotation
									JOINT RightForeArm
									{
										OFFSET -22.049376 0.000000 0.000000
										CHANNELS 3 Xrotation Yrotation Zrotation
										JOINT RightHand
										{
											OFFSET -23.009392 0.000000 0.000000
											CHANNELS 3 Xrotation Yrotation Zrotation
											End Site
											{
												OFFSET 0 0 0
											}
										}
									}
								}
							}
						}
					}
				}
			}
		}
	}
}
MOTION
Frames: 13
Frame Time: 0.03333333
6.831064 75.770264 1.622477 0.000000 0.000000 0.000000 7.619452 -12.399044 -1.187117 -38.722016 6.294943 12.427817 50.995053 10.562701 -0.628222 -18.577676 4.058679 -7.610613 0.000000 0.000000 0.000000 7.619452 -12.399044 -1.187117 -27.854551 -7.503940 -14.239364 51.138746 -8.819654 -4.019890 -12.467388 -1.341863 11.539588 0.000000 0.000000 0.000000 7.619452 -12.399044 -1.187117 0.000000 0.000000 0.000000 12.235003 3.434972 -0.752650 8.663415 6.770422 -1.612662 0.000000 0.000000 0.000000 -3.297302 6.958100 -0.159534 -0.991915 -3.974975 2.371376 0.000000 0.000000 0.000000 -3.297302 6.958100 -0.159534 -1.718768 -6.046466 -0.999763 -9.929223 -3.537263 -61.475678 -13.021842 -28.779227 -4.874854 0.000000 0.000000 0.000000 -3.297302 6.958100 -0.159534 5.719875 -19.303440 3.068949 43.556738 52.747611 9.950972 16.038100 32.046821 10.507628 0.000000 0.000000 0.000000 
6.924155 76.057213 1.506870 0.000000 0.000000 0.000000 7.679302 -12.448717 -1.514792 -38.511981 6.322742 12.620219 50.081904 10.547831 -0.549389 -18.049656 3.996839 -7.448957 0.000000 0.000000 0.000000 7.679302 -12.448717 -1.514792 -27.208726 -7.822072 -13.577413 48.982230 -8.125838 -3.905208 -13.324883 -0.874513 12.008628 0.000000 0.000000 0.000000 7.679302 -12.448717 -1.514792 -0.000001 0.000001 0.000000 12.188748 3.390251 -0.685066 8.547014 6.722062 -1.512191 0.000000 0.000000 0.000000 -3.408235 6.901166 -0.063846 -1.053641 -3.761028 2.184398 0.000000 0.000000 0.000000 -3.408235 6.901166 -0.063846 -1.721884 -5.625956 -0.861950 -9.809320 -3.483231 -61.749657 -12.683613 -28.217827 -4.423296 0.000000 0.000000 0.000000 -3.408235 6.901166 -0.063846 5.552878 -18.831827 2.973356 39.568242 52.456597 11.456167 15.406287 28.844333 12.492168 0.000000 0.000000 0.000000 
7.003841 76.366295 1.383200 0.000000 0.000000 0.000000 7.696033 -12.601355 -1.693833 -38.139862 6.490638 12.709070 48.997134 10.567964 -0.471652 -17.450543 3.969292 -7.293834 0.000000 0.000000 0.000000 7.696033 -12.601355 -1.693833 -26.441669 -8.037951 -13.057330 46.565805 -7.499759 -3.775557 -14.089951 -0.446895 12.371657 0.000000 0.000000 0.000000 7.696033 -12.601355 -1.693833 0.000000 -0.000001 0.000000 12.122705 3.363287 -0.625886 8.392770 6.705788 -1.434637 0.000000 0.000000 0.000000 -3.557803 6.874138 0.015578 -1.257226 -3.492914 1.762464 0.000000 0.000000 0.000000 -3.557803 6.874138 0.015578 -1.718688 -4.981516 -0.876835 -9.750005 -3.501927 -62.027414 -12.393330 -27.714435 -3.952338 0.000000 0.000000 0.000000 -3.557803 6.874138 0.015578 5.335512 -18.451759 2.888867 35.701330 51.672304 13.059064 16.301507 26.406585 13.088700 0.000000 0.000000 0.000000 
7.047805 76.653465 1.282162 0.000000 0.000000 0.000000 7.717058 -12.705302 -1.859584 -37.821291 6.825452 12.785299 47.928243 10.358055 -0.222243 -16.881566 4.025681 -7.153785 0.000000 0.000000 0.000000 7.717058 -12.705302 -1.859584 -25.667250 -8.244992 -12.624765 44.137410 -7.136814 -3.579381 -14.680050 0.166744 12.689300 0.000000 0.000000 0.000000 7.717058 -12.705302 -1.859584 0.000000 -0.000001 0.000000 12.055067 3.337572 -0.569300 8.235420 6.693143 -1.358527 0.000000 0.000000 0.000000 -3.710610 6.857832 0.094729 -1.458326 -3.264164 1.331756 0.000000 0.000000 0.000000 -3.710610 6.857832 0.094729 -1.716040 -4.454585 -0.893411 -9.717396 -3.541835 -62.272276 -11.923626 -27.096115 -3.494371 0.000000 0.000000 0.000000 -3.710610 6.857832 0.094729 5.098993 -17.776590 2.830944 31.146814 51.316871 16.165646 17.702657 22.785041 11.882996 0.000000 0.000000 0.000000 
7.116782 76.903412 1.112278 0.000000 0.000000 0.000000 7.734451 -12.827632 -2.015632 -37.562417 6.890245 12.825496 47.007735 10.455552 -0.131033 -16.302680 3.995504 -7.056878 0.000000 0.000000 0.000000 7.734451 -12.827632 -2.015632 -25.065061 -8.459398 -12.226861 41.799559 -6.913286 -3.491669 -15.032609 0.875473 13.013425 0.000000 0.000000 0.000000 7.734451 -12.827632 -2.015632 0.000001 0.000000 0.000000 11.986582 3.312233 -0.515221 8.076084 6.682151 -1.283643 0.000000 0.000000 0.000000 -3.865397 6.846917 0.173205 -1.691405 -3.047242 0.751944 0.000000 0.000000 0.000000 -3.865397 6.846917 0.173205 -1.703484 -4.073360 -1.096773 -9.664147 -3.522011 -62.401332 -11.500604 -26.618026 -3.042103 0.000000 0.000000 0.000000 -3.865397 6.846917 0.173205 4.854599 -16.949461 2.779316 27.281638 49.320270 18.941544 19.387567 21.796653 11.319710 0.000000 0.000000 0.000000 
7.193779 77.132439 0.965715 0.000000 0.000000 0.000000 7.742159 -12.967963 -2.165861 -37.270088 6.817568 12.872528 46.183745 10.695317 -0.171517 -15.785185 3.929306 -6.968808 0.000000 0.000000 0.000000 7.742159 -12.967963 -2.165861 -24.361543 -8.710870 -11.793106 39.307981 -6.454831 -3.501589 -15.312459 1.218552 13.247839 0.000000 0.000000 0.000000 7.742159 -12.967963 -2.165861 -0.000001 0.000001 0.000000 11.917832 3.286458 -0.462698 7.915924 6.670849 -1.209775 0.000000 0.000000 0.000000 -4.021065 6.836049 0.250614 -1.840861 -2.854065 0.319121 0.000000 0.000000 0.000000 -4.021065 6.836049 0.250614 -1.693603 -3.827968 -1.241114 -9.593850 -3.482803 -62.534985 -11.037054 -26.271932 -2.727135 0.000000 0.000000 0.000000 -4.021065 6.836049 0.250614 4.610793 -16.271288 2.746254 24.194364 47.069169 21.401090 20.960189 21.627932 10.737929 0.000000 0.000000 0.000000 
7.268793 77.326538 0.838816 0.000000 0.000000 0.000000 7.737545 -13.045970 -2.312091 -37.036462 6.814286 12.942456 45.480720 10.771572 -0.212582 -15.352153 3.885626 -6.829513 0.000000 0.000000 0.000000 7.737545 -13.045970 -2.312091 -23.819156 -9.073958 -11.457679 37.104224 -5.241534 -3.501959 -15.338054 0.914797 13.204789 0.000000 0.000000 0.000000 7.737545 -13.045970 -2.312091 0.000000 0.000000 0.000000 11.849302 3.259121 -0.412049 7.756054 6.657265 -1.136708 0.000000 0.000000 0.000000 -4.176328 6.819915 0.326555 -1.929490 -2.619670 -0.133123 0.000000 0.000000 0.000000 -4.176328 6.819915 0.326555 -1.686499 -3.700850 -1.339811 -9.468433 -3.382480 -62.687900 -10.626059 -25.779883 -2.333764 0.000000 0.000000 0.000000 -4.176328 6.819915 0.326555 4.329971 -15.464375 2.695315 21.398131 45.323824 24.265352 21.420759 20.927665 10.099679 0.000000 0.000000 0.000000 
7.318988 77.489677 0.729258 0.000000 0.000000 0.000000 7.716370 -13.034952 -2.458137 -36.852627 6.866929 13.041620 44.877594 10.684654 -0.244465 -14.981024 3.848182 -6.663832 0.000000 0.000000 0.000000 7.716370 -13.034952 -2.458137 -23.300200 -9.250436 -11.021548 35.111366 -3.984793 -3.595411 -15.216710 0.196696 13.136735 0.000000 0.000000 0.000000 7.716370 -13.034952 -2.458137 0.000000 -0.000002 0.000000 11.781793 3.229693 -0.362018 7.597633 6.639437 -1.064228 0.000000 0.000000 0.000000 -4.329986 6.793162 0.400625 -2.097905 -2.467596 -0.485375 0.000000 0.000000 0.000000 -4.329986 6.793162 0.400625 -1.684018 -3.655043 -1.369009 -9.364241 -3.313600 -62.863272 -10.281036 -25.321787 -1.958494 0.000000 0.000000 0.000000 -4.329986 6.793162 0.400625 4.022905 -14.699896 2.630176 18.984063 43.625477 27.206240 21.850419 20.601133 9.208943 0.000000 0.000000 0.000000 
7.350862 77.642563 0.651266 0.000000 0.000000 0.000000 7.567484 -12.992536 -2.567010 -36.524129 7.051362 13.146360 44.287391 10.452076 -0.309148 -14.665260 3.816114 -6.452441 0.000000 0.000000 0.000000 7.567484 -12.992536 -2.567010 -22.705121 -9.224030 -10.535282 33.308302 -2.828796 -3.844402 -14.948417 -0.736795 13.127621 0.000000 0.000000 0.000000 7.567484 -12.992536 -2.567010 0.000000 0.000000 0.000000 11.716484 3.179486 -0.319858 7.445179 6.577523 -1.006372 0.000000 0.000000 0.000000 -4.476716 6.731060 0.451143 -2.240236 -2.272329 -0.829877 0.000000 0.000000 0.000000 -4.476716 6.731060 0.451143 -1.684973 -3.558644 -1.338674 -9.219300 -3.205728 -63.074229 -9.988284 -25.041871 -1.647472 0.000000 0.000000 0.000000 -4.476716 6.731060 0.451143 3.728691 -13.710436 2.652063 16.767911 41.643445 30.213209 22.123157 20.475261 8.172142 0.000000 0.000000 0.000000 
7.345409 77.799408 0.575438 0.000000 0.000000 0.000000 7.308198 -12.861729 -2.705075 -36.075191 7.214975 13.241857 43.661506 10.159239 -0.341948 -14.326730 3.792746 -6.266287 0.000000 0.000000 0.000000 7.308198 -12.861729 -2.705075 -22.163754 -9.093658 -10.183213 31.832776 -2.244003 -3.894737 -14.463795 -1.196925 13.145905 0.000000 0.000000 0.000000 7.308198 -12.861729 -2.705075 0.000001 0.000000 0.000000 11.667523 3.119427 -0.269359 7.324739 6.494891 -0.931728 0.000000 0.000000 0.000000 -4.590991 6.645015 0.513621 -2.350867 -2.140418 -1.082407 0.000000 0.000000 0.000000 -4.590991 6.645015 0.513621 -1.686309 -3.491241 -1.306876 -9.128478 -3.161146 -63.281511 -9.621722 -24.665319 -1.360174 0.000000 0.000000 0.000000 -4.590991 6.645015 0.513621 3.436049 -12.677614 2.720371 14.843990 39.461097 33.241202 22.083612 20.411407 7.131018 0.000000 0.000000 0.000000 
7.328263 77.963310 0.519127 0.000000 0.000000 0.000000 7.007664 -12.685609 -2.804611 -35.529090 7.397052 13.279659 42.971848 9.803709 -0.380922 -13.975728 3.811937 -6.064421 0.000000 0.000000 0.000000 7.007664 -12.685609 -2.804611 -21.768907 -8.849938 -9.956080 30.670357 -2.412926 -3.917476 -13.761998 -1.019382 13.345913 0.000000 0.000000 0.000000 7.007664 -12.685609 -2.804611 0.000000 -0.000001 0.000000 11.615619 3.053931 -0.223080 7.198861 6.399886 -0.866546 0.000000 0.000000 0.000000 -4.710487 6.548597 0.564098 -2.351556 -1.996971 -1.386140 0.000000 0.000000 0.000000 -4.710487 6.548597 0.564098 -1.683823 -3.406819 -1.328214 -9.046183 -3.116431 -63.455312 -9.297529 -24.378800 -1.105792 0.000000 0.000000 0.000000 -4.710487 6.548597 0.564098 3.125336 -11.647268 2.774041 13.151486 37.197067 36.275777 21.653421 20.445312 6.200244 0.000000 0.000000 0.000000 
7.241208 78.146194 0.520775 0.000000 0.000000 0.000000 6.515867 -12.325926 -3.021487 -34.752580 7.573949 13.383004 42.218741 9.240807 -0.358876 -13.633532 3.849899 -5.891054 0.000000 0.000000 0.000000 6.515867 -12.325926 -3.021487 -20.852194 -8.477455 -9.519145 29.480524 -3.436830 -3.991501 -13.862507 -0.698036 13.705487 0.000000 0.000000 0.000000 6.515867 -12.325926 -3.021487 0.000000 -0.000001 0.000000 11.588966 2.973975 -0.153410 7.121372 6.275667 -0.751659 0.000000 0.000000 0.000000 -4.781024 6.413116 0.656969 -2.346676 -1.940746 -1.582422 0.000000 0.000000 0.000000 -4.781024 6.413116 0.656969 -1.683971 -3.311990 -1.311699 -9.066530 -3.203673 -63.661830 -8.896718 -23.916143 -0.825326 0.000000 0.000000 0.000000 -4.781024 6.413116 0.656969 2.823420 -10.771067 2.883931 11.686288 34.989898 39.226306 20.903459 20.431830 5.441411 0.000000 0.000000 0.000000 
7.154699 78.301590 0.534069 0.000000 0.000000 0.000000 6.173244 -11.965845 -3.065733 -34.080831 7.681215 13.264110 41.482181 8.831553 -0.284808 -13.289395 3.926819 -5.791141 0.000000 0.000000 0.000000 6.173244 -11.965845 -3.065733 -20.209830 -7.984212 -9.168469 28.624976 -4.351047 -4.277799 -14.238289 -0.722006 14.443301 0.000000 0.000000 0.000000 6.173244 -11.965845 -3.065733 0.000000 0.000000 0.000000 11.535768 2.895200 -0.100956 6.992842 6.152230 -0.671590 0.000000 0.000000 0.000000 -4.902747 6.285282 0.715744 -2.262577 -1.884234 -1.948317 0.000000 0.000000 0.000000 -4.902747 6.285282 0.715744 -1.676461 -3.259692 -1.401267 -9.052564 -3.241164 -63.840733 -8.644411 -23.716864 -0.632763 0.000000 0.000000 0.000000 -4.902747 6.285282 0.715744 2.484696 -9.776283 2.874741 10.512203 32.587321 42.209613 19.614860 20.504897 4.889525 0.000000 0.000000 0.000000 
